<svg xmlns="http://www.w3.org/2000/svg" viewBox="0 0 512 512"><defs><radialGradient id="ctr" cx="42%" cy="36%" r="72%"><stop offset="0%" stop-color="#fff1ab"/><stop offset="42%" stop-color="#ffd23a"/><stop offset="100%" stop-color="#ef9f0c"/></radialGradient><radialGradient id="discsh" cx="50%" cy="84%" r="62%"><stop offset="55%" stop-color="#000000" stop-opacity="0"/><stop offset="100%" stop-color="#7a3f00" stop-opacity="0.34"/></radialGradient><radialGradient id="hl" cx="50%" cy="50%" r="50%"><stop offset="0%" stop-color="#ffffff" stop-opacity="0.85"/><stop offset="70%" stop-color="#ffffff" stop-opacity="0"/></radialGradient></defs><g transform="translate(256.0,256.0)"><g><path d="M0,0 C -62,-87.36 -31.0,-208 0,-208 C 31.0,-208 62,-87.36 0,0 Z" fill="#c63737" transform="rotate(0.0)"/><path d="M0,0 C -62,-87.36 -31.0,-208 0,-208 C 31.0,-208 62,-87.36 0,0 Z" fill="#c67537" transform="rotate(25.714285714285715)"/><path d="M0,0 C -62,-87.36 -31.0,-208 0,-208 C 31.0,-208 62,-87.36 0,0 Z" fill="#c6b237" transform="rotate(51.42857142857143)"/><path d="M0,0 C -62,-87.36 -31.0,-208 0,-208 C 31.0,-208 62,-87.36 0,0 Z" fill="#9dc637" transform="rotate(77.14285714285714)"/><path d="M0,0 C -62,-87.36 -31.0,-208 0,-208 C 31.0,-208 62,-87.36 0,0 Z" fill="#60c637" transform="rotate(102.85714285714286)"/><path d="M0,0 C -62,-87.36 -31.0,-208 0,-208 C 31.0,-208 62,-87.36 0,0 Z" fill="#37c64c" transform="rotate(128.57142857142858)"/><path d="M0,0 C -62,-87.36 -31.0,-208 0,-208 C 31.0,-208 62,-87.36 0,0 Z" fill="#37c689" transform="rotate(154.28571428571428)"/><path d="M0,0 C -62,-87.36 -31.0,-208 0,-208 C 31.0,-208 62,-87.36 0,0 Z" fill="#37c6c6" transform="rotate(180.0)"/><path d="M0,0 C -62,-87.36 -31.0,-208 0,-208 C 31.0,-208 62,-87.36 0,0 Z" fill="#3789c6" transform="rotate(205.71428571428572)"/><path d="M0,0 C -62,-87.36 -31.0,-208 0,-208 C 31.0,-208 62,-87.36 0,0 Z" fill="#374cc6" transform="rotate(231.42857142857142)"/><path d="M0,0 C -62,-87.36 -31.0,-208 0,-208 C 31.0,-208 62,-87.36 0,0 Z" fill="#6037c6" transform="rotate(257.14285714285717)"/><path d="M0,0 C -62,-87.36 -31.0,-208 0,-208 C 31.0,-208 62,-87.36 0,0 Z" fill="#9d37c6" transform="rotate(282.85714285714283)"/><path d="M0,0 C -62,-87.36 -31.0,-208 0,-208 C 31.0,-208 62,-87.36 0,0 Z" fill="#c637b2" transform="rotate(308.57142857142856)"/><path d="M0,0 C -62,-87.36 -31.0,-208 0,-208 C 31.0,-208 62,-87.36 0,0 Z" fill="#c63775" transform="rotate(334.2857142857143)"/></g><g><path d="M0,0 C -52,-68.03999999999999 -26.0,-162 0,-162 C 26.0,-162 52,-68.03999999999999 0,0 Z" fill="#fc5123" transform="rotate(12.857142857142858)"/><path d="M0,0 C -52,-68.03999999999999 -26.0,-162 0,-162 C 26.0,-162 52,-68.03999999999999 0,0 Z" fill="#fcae23" transform="rotate(38.57142857142857)"/><path d="M0,0 C -52,-68.03999999999999 -26.0,-162 0,-162 C 26.0,-162 52,-68.03999999999999 0,0 Z" fill="#ecfc23" transform="rotate(64.28571428571429)"/><path d="M0,0 C -52,-68.03999999999999 -26.0,-162 0,-162 C 26.0,-162 52,-68.03999999999999 0,0 Z" fill="#8ffc23" transform="rotate(90.0)"/><path d="M0,0 C -52,-68.03999999999999 -26.0,-162 0,-162 C 26.0,-162 52,-68.03999999999999 0,0 Z" fill="#32fc23" transform="rotate(115.71428571428571)"/><path d="M0,0 C -52,-68.03999999999999 -26.0,-162 0,-162 C 26.0,-162 52,-68.03999999999999 0,0 Z" fill="#23fc70" transform="rotate(141.42857142857142)"/><path d="M0,0 C -52,-68.03999999999999 -26.0,-162 0,-162 C 26.0,-162 52,-68.03999999999999 0,0 Z" fill="#23fccd" transform="rotate(167.14285714285714)"/><path d="M0,0 C -52,-68.03999999999999 -26.0,-162 0,-162 C 26.0,-162 52,-68.03999999999999 0,0 Z" fill="#23cdfc" transform="rotate(192.85714285714286)"/><path d="M0,0 C -52,-68.03999999999999 -26.0,-162 0,-162 C 26.0,-162 52,-68.03999999999999 0,0 Z" fill="#2370fc" transform="rotate(218.57142857142858)"/><path d="M0,0 C -52,-68.03999999999999 -26.0,-162 0,-162 C 26.0,-162 52,-68.03999999999999 0,0 Z" fill="#3223fc" transform="rotate(244.28571428571428)"/><path d="M0,0 C -52,-68.03999999999999 -26.0,-162 0,-162 C 26.0,-162 52,-68.03999999999999 0,0 Z" fill="#8f23fc" transform="rotate(270.0)"/><path d="M0,0 C -52,-68.03999999999999 -26.0,-162 0,-162 C 26.0,-162 52,-68.03999999999999 0,0 Z" fill="#ec23fc" transform="rotate(295.7142857142857)"/><path d="M0,0 C -52,-68.03999999999999 -26.0,-162 0,-162 C 26.0,-162 52,-68.03999999999999 0,0 Z" fill="#fc23ae" transform="rotate(321.42857142857144)"/><path d="M0,0 C -52,-68.03999999999999 -26.0,-162 0,-162 C 26.0,-162 52,-68.03999999999999 0,0 Z" fill="#fc2351" transform="rotate(347.14285714285717)"/></g><circle r="74" fill="url(#ctr)"/><circle r="74" fill="url(#discsh)"/><ellipse cx="-20" cy="-24" rx="34" ry="22" fill="url(#hl)"/><circle r="74" fill="none" stroke="#d99a1a" stroke-width="2.5" opacity=".55"/><circle cx="62.0" cy="0.0" r="2.3" fill="#b9780f" opacity=".55"/><circle cx="53.7" cy="31.0" r="2.3" fill="#b9780f" opacity=".55"/><circle cx="31.0" cy="53.7" r="2.3" fill="#b9780f" opacity=".55"/><circle cx="0.0" cy="62.0" r="2.3" fill="#b9780f" opacity=".55"/><circle cx="-31.0" cy="53.7" r="2.3" fill="#b9780f" opacity=".55"/><circle cx="-53.7" cy="31.0" r="2.3" fill="#b9780f" opacity=".55"/><circle cx="-62.0" cy="0.0" r="2.3" fill="#b9780f" opacity=".55"/><circle cx="-53.7" cy="-31.0" r="2.3" fill="#b9780f" opacity=".55"/><circle cx="-31.0" cy="-53.7" r="2.3" fill="#b9780f" opacity=".55"/><circle cx="-0.0" cy="-62.0" r="2.3" fill="#b9780f" opacity=".55"/><circle cx="31.0" cy="-53.7" r="2.3" fill="#b9780f" opacity=".55"/><circle cx="53.7" cy="-31.0" r="2.3" fill="#b9780f" opacity=".55"/><g transform="translate(0,2.5)"><line x1="0" y1="0" x2="-34.6" y2="-20.0" stroke="rgba(20,12,16,.28)" stroke-width="11" stroke-linecap="round" opacity="1"/><line x1="0" y1="0" x2="53.7" y2="-31.0" stroke="rgba(20,12,16,.28)" stroke-width="11" stroke-linecap="round" opacity="1"/></g><line x1="0" y1="0" x2="-34.6" y2="-20.0" stroke="#20141c" stroke-width="9" stroke-linecap="round" opacity="1"/><line x1="0" y1="0" x2="53.7" y2="-31.0" stroke="#20141c" stroke-width="9" stroke-linecap="round" opacity="1"/><circle r="7.5" fill="#20141c"/><circle cx="-2" cy="-2" r="2.4" fill="#ffe79a"/></g></svg>