<svg xmlns="http://www.w3.org/2000/svg" viewBox="0 0 512 512"><defs><radialGradient id="ctr" cx="50%" cy="42%" r="62%"><stop offset="0%" stop-color="#ffe14d"/><stop offset="68%" stop-color="#ffc400"/><stop offset="100%" stop-color="#f0a800"/></radialGradient></defs><g transform="translate(256.0,256.0) scale(1.0)"><g><path d="M0,0 C -62,-87.36 -31.0,-208 0,-208 C 31.0,-208 62,-87.36 0,0 Z" fill="#c63737" transform="rotate(0.0)"/><path d="M0,0 C -62,-87.36 -31.0,-208 0,-208 C 31.0,-208 62,-87.36 0,0 Z" fill="#c67537" transform="rotate(25.714285714285715)"/><path d="M0,0 C -62,-87.36 -31.0,-208 0,-208 C 31.0,-208 62,-87.36 0,0 Z" fill="#c6b237" transform="rotate(51.42857142857143)"/><path d="M0,0 C -62,-87.36 -31.0,-208 0,-208 C 31.0,-208 62,-87.36 0,0 Z" fill="#9dc637" transform="rotate(77.14285714285714)"/><path d="M0,0 C -62,-87.36 -31.0,-208 0,-208 C 31.0,-208 62,-87.36 0,0 Z" fill="#60c637" transform="rotate(102.85714285714286)"/><path d="M0,0 C -62,-87.36 -31.0,-208 0,-208 C 31.0,-208 62,-87.36 0,0 Z" fill="#37c64c" transform="rotate(128.57142857142858)"/><path d="M0,0 C -62,-87.36 -31.0,-208 0,-208 C 31.0,-208 62,-87.36 0,0 Z" fill="#37c689" transform="rotate(154.28571428571428)"/><path d="M0,0 C -62,-87.36 -31.0,-208 0,-208 C 31.0,-208 62,-87.36 0,0 Z" fill="#37c6c6" transform="rotate(180.0)"/><path d="M0,0 C -62,-87.36 -31.0,-208 0,-208 C 31.0,-208 62,-87.36 0,0 Z" fill="#3789c6" transform="rotate(205.71428571428572)"/><path d="M0,0 C -62,-87.36 -31.0,-208 0,-208 C 31.0,-208 62,-87.36 0,0 Z" fill="#374cc6" transform="rotate(231.42857142857142)"/><path d="M0,0 C -62,-87.36 -31.0,-208 0,-208 C 31.0,-208 62,-87.36 0,0 Z" fill="#6037c6" transform="rotate(257.14285714285717)"/><path d="M0,0 C -62,-87.36 -31.0,-208 0,-208 C 31.0,-208 62,-87.36 0,0 Z" fill="#9d37c6" transform="rotate(282.85714285714283)"/><path d="M0,0 C -62,-87.36 -31.0,-208 0,-208 C 31.0,-208 62,-87.36 0,0 Z" fill="#c637b2" transform="rotate(308.57142857142856)"/><path d="M0,0 C -62,-87.36 -31.0,-208 0,-208 C 31.0,-208 62,-87.36 0,0 Z" fill="#c63775" transform="rotate(334.2857142857143)"/></g><g><path d="M0,0 C -52,-68.03999999999999 -26.0,-162 0,-162 C 26.0,-162 52,-68.03999999999999 0,0 Z" fill="#fc5123" transform="rotate(12.857142857142858)"/><path d="M0,0 C -52,-68.03999999999999 -26.0,-162 0,-162 C 26.0,-162 52,-68.03999999999999 0,0 Z" fill="#fcae23" transform="rotate(38.57142857142857)"/><path d="M0,0 C -52,-68.03999999999999 -26.0,-162 0,-162 C 26.0,-162 52,-68.03999999999999 0,0 Z" fill="#ecfc23" transform="rotate(64.28571428571429)"/><path d="M0,0 C -52,-68.03999999999999 -26.0,-162 0,-162 C 26.0,-162 52,-68.03999999999999 0,0 Z" fill="#8ffc23" transform="rotate(90.0)"/><path d="M0,0 C -52,-68.03999999999999 -26.0,-162 0,-162 C 26.0,-162 52,-68.03999999999999 0,0 Z" fill="#32fc23" transform="rotate(115.71428571428571)"/><path d="M0,0 C -52,-68.03999999999999 -26.0,-162 0,-162 C 26.0,-162 52,-68.03999999999999 0,0 Z" fill="#23fc70" transform="rotate(141.42857142857142)"/><path d="M0,0 C -52,-68.03999999999999 -26.0,-162 0,-162 C 26.0,-162 52,-68.03999999999999 0,0 Z" fill="#23fccd" transform="rotate(167.14285714285714)"/><path d="M0,0 C -52,-68.03999999999999 -26.0,-162 0,-162 C 26.0,-162 52,-68.03999999999999 0,0 Z" fill="#23cdfc" transform="rotate(192.85714285714286)"/><path d="M0,0 C -52,-68.03999999999999 -26.0,-162 0,-162 C 26.0,-162 52,-68.03999999999999 0,0 Z" fill="#2370fc" transform="rotate(218.57142857142858)"/><path d="M0,0 C -52,-68.03999999999999 -26.0,-162 0,-162 C 26.0,-162 52,-68.03999999999999 0,0 Z" fill="#3223fc" transform="rotate(244.28571428571428)"/><path d="M0,0 C -52,-68.03999999999999 -26.0,-162 0,-162 C 26.0,-162 52,-68.03999999999999 0,0 Z" fill="#8f23fc" transform="rotate(270.0)"/><path d="M0,0 C -52,-68.03999999999999 -26.0,-162 0,-162 C 26.0,-162 52,-68.03999999999999 0,0 Z" fill="#ec23fc" transform="rotate(295.7142857142857)"/><path d="M0,0 C -52,-68.03999999999999 -26.0,-162 0,-162 C 26.0,-162 52,-68.03999999999999 0,0 Z" fill="#fc23ae" transform="rotate(321.42857142857144)"/><path d="M0,0 C -52,-68.03999999999999 -26.0,-162 0,-162 C 26.0,-162 52,-68.03999999999999 0,0 Z" fill="#fc2351" transform="rotate(347.14285714285717)"/></g><circle r="70" fill="url(#ctr)"/><circle cx="40.0" cy="0.0" r="3.4" fill="#e8a200"/><circle cx="34.6" cy="20.0" r="3.4" fill="#e8a200"/><circle cx="20.0" cy="34.6" r="3.4" fill="#e8a200"/><circle cx="0.0" cy="40.0" r="3.4" fill="#e8a200"/><circle cx="-20.0" cy="34.6" r="3.4" fill="#e8a200"/><circle cx="-34.6" cy="20.0" r="3.4" fill="#e8a200"/><circle cx="-40.0" cy="0.0" r="3.4" fill="#e8a200"/><circle cx="-34.6" cy="-20.0" r="3.4" fill="#e8a200"/><circle cx="-20.0" cy="-34.6" r="3.4" fill="#e8a200"/><circle cx="-0.0" cy="-40.0" r="3.4" fill="#e8a200"/><circle cx="20.0" cy="-34.6" r="3.4" fill="#e8a200"/><circle cx="34.6" cy="-20.0" r="3.4" fill="#e8a200"/><line x1="0" y1="0" x2="-26.0" y2="-15.0" stroke="#1c1118" stroke-width="9" stroke-linecap="round"/><line x1="0" y1="0" x2="39.8" y2="-23.0" stroke="#1c1118" stroke-width="7" stroke-linecap="round"/><circle r="6.5" fill="#1c1118"/><circle r="2.6" fill="#ffd633"/></g></svg>